/* XPM */
static char *_1ce6be733f547359716c9cdcaeb7e6c[] = {
/* columns rows colors chars-per-pixel */
"32 32 248 2 ",
"   c #252525",
".  c gray15",
"X  c #272726",
"o  c #272728",
"O  c #282828",
"+  c gray16",
"@  c #2A2A29",
"#  c #29292A",
"$  c #2A292A",
"%  c #2A2A2A",
"&  c gray17",
"*  c #2A282D",
"=  c #2B2B2C",
"-  c #2C2C2C",
";  c #2D2D2D",
":  c #2E2E2D",
">  c gray18",
",  c #2F2F2F",
"<  c #30322B",
"1  c #32352B",
"2  c #33382A",
"3  c #34382A",
"4  c #34382B",
"5  c #34392B",
"6  c #2D2A33",
"7  c #2D2B33",
"8  c #2E2B33",
"9  c #2F2D32",
"0  c #2E2B34",
"q  c #2E2B36",
"w  c #2E2C34",
"e  c #302E34",
"r  c #302F34",
"t  c #302E36",
"y  c #312E36",
"u  c gray19",
"i  c #303031",
"p  c #313131",
"a  c #313032",
"s  c #313132",
"d  c #323232",
"f  c #333233",
"g  c gray20",
"h  c #313034",
"j  c #323034",
"k  c #323135",
"l  c #333334",
"z  c #343435",
"x  c #353435",
"c  c #353536",
"v  c #363536",
"b  c #363833",
"n  c #383B31",
"m  c #3C3B3D",
"M  c #3C4429",
"N  c #3D4330",
"B  c #424E28",
"V  c #495A23",
"C  c #4A5B25",
"Z  c #4B5B26",
"A  c #4B5B27",
"S  c #4C5D26",
"D  c #4D5E26",
"F  c #46522E",
"G  c #4C5A2F",
"H  c #505F2E",
"J  c #444D30",
"K  c #454E32",
"L  c #51612E",
"P  c #5C722A",
"I  c #516030",
"U  c #58643F",
"Y  c #647F2A",
"T  c #454544",
"R  c #474649",
"E  c #4B4A4E",
"W  c #4F4E52",
"Q  c #515153",
"!  c #656469",
"~  c #66656A",
"^  c #69676D",
"/  c #69676E",
"(  c #686868",
")  c #6A6A6A",
"_  c gray42",
"`  c #6A6A6C",
"'  c #6B6A6D",
"]  c #6A686F",
"[  c #6B6A6E",
"{  c #6C6B6D",
"}  c #6C6C6C",
"|  c #6D6D6D",
" . c #6B6872",
".. c #6D6B71",
"X. c #6C6972",
"o. c #6C6973",
"O. c #6D6B72",
"+. c #6E6C71",
"@. c #706D75",
"#. c #706E75",
"$. c #717171",
"%. c #717271",
"&. c #727077",
"*. c #747279",
"=. c #6E8D2B",
"-. c #6F9126",
";. c #749727",
":. c #759927",
">. c #759A27",
",. c #779B27",
"<. c #799F27",
"1. c #719328",
"2. c #729428",
"3. c #7AA026",
"4. c #7CA424",
"5. c #7FA825",
"6. c #87BB14",
"7. c #87BB15",
"8. c #87BC15",
"9. c #89BE15",
"0. c #88BC16",
"q. c #89BD16",
"w. c #88BC17",
"e. c #88BD17",
"r. c #89BD17",
"t. c #8ABF17",
"y. c #83B31A",
"u. c #83B419",
"i. c #87BA19",
"p. c #89BD18",
"a. c #8ABD1A",
"s. c #8BBE1C",
"d. c #8BBE1D",
"f. c #8CBE1E",
"g. c #8CBF1E",
"h. c #8CBE1F",
"j. c #8DBF1F",
"k. c #83AE24",
"l. c #88B623",
"z. c #89B623",
"x. c #8ABB21",
"c. c #8BBB23",
"v. c #8DBF20",
"b. c #8DBE21",
"n. c #8DBF21",
"m. c #8EBF20",
"M. c #8EBF21",
"N. c #8CBC22",
"B. c #8EBF22",
"V. c #8BC213",
"C. c #8DC316",
"Z. c #8EC021",
"A. c #8EC022",
"S. c #8FC022",
"D. c #8FC122",
"F. c #8FC023",
"G. c #90C222",
"H. c #90C322",
"J. c #92C521",
"K. c #92C620",
"L. c #92C621",
"P. c #93C621",
"I. c #93C721",
"U. c #91C422",
"Y. c #91C522",
"T. c #93C722",
"R. c #90C124",
"E. c #90C125",
"W. c #91C126",
"Q. c #91C127",
"!. c #94C821",
"~. c #96CB21",
"^. c #97CD20",
"/. c #92C228",
"(. c #95C42D",
"). c #97C631",
"_. c #99C735",
"`. c #99C537",
"'. c #8A9474",
"]. c #A1CC43",
"[. c #A2CB4A",
"{. c #ABCE5D",
"}. c #A9D250",
"|. c #ACD456",
" X c #AFD068",
".X c #B4D765",
"XX c #B5D66C",
"oX c #B6D96A",
"OX c #B7D96A",
"+X c #B7D96C",
"@X c #B9DB6B",
"#X c #B6D671",
"$X c #BCDE72",
"%X c #BAD977",
"&X c #BEDF77",
"*X c #BEE26E",
"=X c #BFE077",
"-X c #C1E17B",
";X c #C3E27E",
":X c #95929C",
">X c #97949D",
",X c #9B98A2",
"<X c #A0A0A2",
"1X c #B0AEB4",
"2X c #C2DE83",
"3X c #C3E280",
"4X c #C6E484",
"5X c #C6E584",
"6X c #C6E08D",
"7X c #CFEE89",
"8X c #D9EFA7",
"9X c #DCF1AD",
"0X c #E0F5B3",
"qX c #BAB7C0",
"wX c #BFBCC5",
"eX c #C3C1C7",
"rX c #C4C2CA",
"tX c #C8C5CE",
"yX c #CBC9D1",
"uX c #CFCCD4",
"iX c #D2CFD7",
"pX c #D5D2DA",
"aX c #DBDBDC",
"sX c #DEDFDE",
"dX c #E7F5C9",
"fX c #EAF7CE",
"gX c #EBF7D2",
"hX c #EDF7D7",
"jX c #ECF2DE",
"kX c #F1FBDC",
"lX c #F2FBDE",
"zX c #DFDBE7",
"xX c #DFDAE9",
"cX c #E0DEE5",
"vX c #E1DFE7",
"bX c #E2E0E7",
"nX c #EAEFE0",
"mX c #EBEFE2",
"MX c #E3E1E8",
"NX c #E5E2EB",
"BX c #E7E5EC",
"VX c #EAEBE8",
"CX c #EDF3E1",
"ZX c #ECF1E2",
"AX c #F2FBE0",
"SX c #F3FBE2",
"DX c #F3FAE4",
"FX c None",
/* pixels */
"FX} $.$.$.$.$.$.$.O. .O. ./ ) $.$.$.$.+.O.O. . .{ $.$.$.$.$.} FX",
"}   - - - - - - = B S Z V U Q + = = = M S A V I T + - - - -   ) ",
"$.- g g g g g g r <.^.P.C.*XcXf g f x 5.~.P.V.7X1Xo f g g g + } ",
"$.- g g g g g g r >.P.S.p.OXMXv g 8 H P.S.j./.DX~ - g g g v - } ",
"$.- g g g g g g r >.P.S.w.oXMXx i i <.P.n.w.4XtX+ g g g g g - } ",
"$.- g g g g g g r >.P.S.e.oXMXx 0 G P.S.n.W.SX! + g g g g g - } ",
"$.- g g g g g g r >.P.S.e.OXMXk i ;.P.S.w.3XyX= v g g g g g - } ",
"$.- g g g g g g r >.P.S.e.OXMXr F S.S.n.S.lX/ + g g g g g g - $.",
"$.- g g g g g g r >.P.S.e.OXbXr -.L.S.6.-XuX- g g g g g g g - } ",
"$.- g g g g g g r >.P.S.e.OXzXK v.S.v.S.kX..+ g g g g g g g - } ",
"$.- g g g g g g r >.P.S.e.OXxX=.P.S.6.=XiX- g g g g g g g g - } ",
"$.- g g g g g g r >.P.S.e.XXnXx.Z.Z.S.kX&.+ g g g g g g g v - } ",
"$.- g g g g g g r >.P.S.e.#X6Xe.Z.6.$XpX- g g g g g g g g g - } ",
"$.- g g g g g g r >.P.S.d.[.`.d.v.E.hX&.+ g g g g g g g g g - } ",
"$.- g g g g g g r >.P.S.S.n.n.S.d.].VXm u g g g g g g g g g - $.",
"$.- g g g g g g r >.P.S.S.S.S.S.Z.d.dX*.+ g g g g g g g g g - } ",
"$.- g g g g g g i >.P.S.S.S.S.S.S.6.&XrX# g g g g g g g g g - } ",
"$.- g g g g g g r >.P.S.S.S.n.n.S.v.(.CXW u g g g g g g g g - } ",
"$.- g g g g g g r >.P.S.S.n.E.W.v.Z.6.8X,X. g g g g g g g g - } ",
"$.- g g g g g g r >.P.S.S.e.%X2Xw.S.d.}.sXz p g g g g g g z - } ",
"$.- g g g g g g r >.P.n.n./.ZX'.i.S.Z.d.fX#.- g g g g g g g - } ",
"$.- g g g g g g r >.P.W.w..XMXz 4.H.S.6.;XwX# z g g g g g g - $.",
"$.- g g g g f f r >.P.n.w.+XMX0 P L.S.Z.).ZXE - g g g g g g - } ",
"$.- g g g g f f r >.P.G.6.oXMXk N c.S.S.6.9X:X. g g g g g g - } ",
"$.- g g g g g g r >.P.S.w.OXbXz 7 1.P.n.p.|.aXk g g g g g g - } ",
"$.- g g g g g g r >.P.S.w.OXbXv 8 H P.v.S.Z.gX .+ g g g g g - } ",
"$.- g g g g g g w ,.L.S.w.+XvXz p b 5.S.S.6.5XqX. g g g g g - $.",
"$.- g g g g g g k ,.L.S.V.+XbXz g 0 =.L.S.d._.nXR p g g g g - } ",
"$.- g g g g g g r ,.L.S.V.@XBXv g 7 J S.P.S.e.0X>X. g g g g - } ",
"$.- g v g g g g r 1.n.z.y. XeXp g g k ;.c.z.u.{.<X+ g g g g - } ",
"}   - - - - - - - 1 2 2 2 n u + - - + < 4 4 4 5 u + - - - -   ( ",
"FX( } } $.} } } } [ [ [ [ [ } $...} } } [ [ [ } } } $.} } } ) FX"
};
