/* XPM */
static char *_b5f9e32f6144b7bef2c65e63bdf72ca[] = {
/* columns rows colors chars-per-pixel */
"64 64 117 2 ",
"   c #262626",
".  c #26222C",
"X  c #28272C",
"o  c #2C2C2C",
"O  c #33372A",
"+  c #2E2B34",
"@  c #302F31",
"#  c #333333",
"$  c #373933",
"%  c #393C32",
"&  c #3B3B3B",
"*  c #3C4031",
"=  c #414F24",
"-  c #4A562F",
";  c #4E5C2E",
":  c #414931",
">  c #43453F",
",  c #465130",
"<  c #576F23",
"1  c #52632D",
"2  c #596E2C",
"3  c #5F772B",
"4  c #617A2B",
"5  c #424242",
"6  c #4A4A4A",
"7  c #545454",
"8  c #5C5C5B",
"9  c #636363",
"0  c #636169",
"q  c gray42",
"w  c #747474",
"e  c #7B7B7B",
"r  c #6B8E1F",
"t  c #7DA91C",
"y  c #6D8F22",
"u  c #678429",
"i  c #698729",
"p  c #6E8E28",
"a  c #749727",
"s  c #769A27",
"d  c #709128",
"f  c #7CA326",
"g  c #7FA925",
"h  c #82B317",
"j  c #86BA15",
"k  c #88BC16",
"l  c #84B41A",
"z  c #8BBD1D",
"x  c #81AC25",
"c  c #86B324",
"v  c #88B623",
"b  c #8DBE22",
"n  c #8BC213",
"m  c #91C51F",
"M  c #8FC122",
"N  c #92C621",
"B  c #94C921",
"V  c #98CF20",
"C  c #92C12B",
"Z  c #96C332",
"A  c #9AC63B",
"S  c #839F48",
"D  c #9BA97C",
"F  c #9DC740",
"G  c #9FC943",
"H  c #A3CB4C",
"J  c #A7CB59",
"K  c #A9CE59",
"L  c #AED162",
"P  c #B0D367",
"I  c #B3D46D",
"U  c #B6D673",
"Y  c #B8D776",
"T  c #BBD97B",
"R  c #808080",
"E  c #8D8D8D",
"W  c gray58",
"Q  c #9A9A9A",
"!  c gray64",
"~  c #ACABAE",
"^  c #B4B4B4",
"/  c #BBBBBB",
"(  c #BFDB83",
")  c #C0DC86",
"_  c #C3DD8B",
"`  c #C6DF90",
"'  c #C8DC9D",
"]  c #C8E095",
"[  c #CBE29B",
"{  c #CEE3A1",
"}  c #D0E5A4",
"|  c #D6EEA3",
" . c #D6EAAA",
".. c #D7E9B1",
"X. c #DAEBB7",
"o. c #DEEDBD",
"O. c #BFBEC3",
"+. c #C4C4C4",
"@. c #CACACA",
"#. c #CDD0C8",
"$. c #CDCAD3",
"%. c #D0CFD0",
"&. c #D2D2D3",
"*. c #DCDCDC",
"=. c #E1EFC3",
"-. c #E6F1CC",
";. c #EDF6DC",
":. c #E3E2E3",
">. c #EBEAEC",
",. c #EFF7E0",
"<. c #F2F8E5",
"1. c #F5FAEB",
"2. c #F4F4F6",
"3. c #FAFDF4",
"4. c #F7F7F8",
"5. c #FFFFFF",
"6. c None",
/* pixels */
"6.6.6.6.6.6.6.6.6.6.6.6.6.6.6.6.6.6.6.6.6.6.6.6.6.6.6.6.6.6.6.6.6.6.6.6.6.6.6.6.6.6.6.6.6.6.6.6.6.6.6.6.6.6.6.6.6.6.6.6.6.6.6.6.",
"6.o @ @ @ @ @ # # @ @ @ # @ # @ # @ @ @ @ @ # @ @ @ # @ @ @ @ # # @ @ @ @ # # @ # o @ @ @ @ @ @ @ # # @ @ + @ # # @ @ # @ # 6.6.",
"6.# # # # # # $ # # # # # # # # # # @ + + + + + + + + o   o # # # # # # # # @ + + # + + + + + o o # @ # # # # # @ # # # $ # o 6.",
"6.@ # # # # # # # # # # # # # # # @ 1 a d d d d d p r D ~ > # # # # # # # # % p d d d d d d y S E o # # # # # # # # # # # # o 6.",
"6.@ # # # # # # # # # # # # # # # + 4 V N N N N m N n  .5.^ o # # # # # # + 3 V N N N M N N n | 5.8 o # # # $ # # # # # # # o 6.",
"6.# # # # # # # # # # # # # # # # + 3 N b b b b b b j { 5.@.o # # # # # @ $ x M b b b b b z A 3.3.8 o # $ # # # # # # # # # o 6.",
"6.# @ # # # # # # # # # # # # # # + 4 N b b b b b b j { 5.+.o # # # # # + 2 N M b b b b b j [ 5.^ X @ # # # # # # # # # # # o 6.",
"6.@ # # # # # # # # # $ # # # # # + 3 N b b b b b b j { 5.+.o @ # # $ @ # g M M b b b b z A 3.5.7 o # # # # # # # # # # # $ o 6.",
"6.@ # # # # # # # # # # # # # # # + 3 N b b b b b b j { 5.+.o # # # # + 1 N b b b b b b j [ 5.^ X # # # # # # # # # # # # # + 6.",
"6.# # # # # # # # # # # # # # # # + 3 N b b b b b b j { 5.+.o # # # # # f N b b b b b b Z 3.5.7 o # # # # # # # # # # # # # o 6.",
"6.@ # # # # # # # # $ # # # # # # + 3 B b b b b b b j { 5.+.o # # # + ; N b b b b b b j ] 5./   # # $ # # # # # # # # # # # o 6.",
"6.@ # # # # # # # # # # # # # # # + 3 N b b b b b b j { 5.+.o # # # # s N b b b b b z Z 1.5.8 o # # # # # # # # # # # # # $ o 6.",
"6.# # # # # & # # # # # $ # # # # + 3 N b b b b b b j { 5.+.o # # + - M M b b b b b j ` 5./ o @ # # # # $ # # # # # # # # # o 6.",
"6.@ # # # # # # # # # # # # # # # + 3 N b b b b b b j { 5.+.o @ $ + a N b b b b b z Z 1.5.9 o # # # # # # # # # # $ # # # # o 6.",
"6.@ # # # # # # # # # # # # # # # + 3 N b b b b b b j { 5.+.o $ + , M M b b b b b j _ 5.+.o @ # # # # # # # # # # # # # # # o 6.",
"6.# # # # # # # # # # # # # # # # + 3 N b b b b b b j { 5.+.o # + p N b b b b b z C 1.5.8 o # # $ # # # # # # # # # # # # # + 6.",
"6.@ # # # # # # # # # # # # # # # + 3 N M b b b b b j { 5.+.o @ : b M b b b b b j ) 5.+.o # # # # # # # # # # # # # # # # # + 6.",
"6.# # # # # # # # # # # # # # # # + 3 N b b b b b b j { 5.+.o + i N b b b b b z C 1.5.9 o # # # # # # # # # # # # # # # # # o 6.",
"6.# # # # # # # # # # # # # & # # + 3 N b b b b b b j { 5.+.X * b M b b b b M j ( 5.@.o # # # # # # # # # # # # # # # # # # o 6.",
"6.@ # # # # # # # # # # # # # # # + 3 N b b b b b b j { 5.+.. 4 N b b b b b z C <.5.0 o # # # # # # # # # # # & # # # # # $ o 6.",
"6.@ # # # # # # # # # # & # # # # + 3 N b b b b b b j { 5.+.O v M b b b b b j T 5.@.o # # # # # # # # # # # # # # # # # # # + 6.",
"6.@ # # # # # # # # # # # # # # # + 3 N b b b b b b j { 5.O.< N b b b b b z C ,.5.q X $ # $ # # # # # # # # # # # # # # # # o 6.",
"6.# # # # # # # # # # # # # # # # + 3 N b b b b b b j { 5.#.t M b b b b b j T 5.%.o @ # # # # # # # # # # # # # # # # # # $ o 6.",
"6.@ # # # # $ # # # # # # # # # # + 3 N b b b b b b j { 5.{ j b b b b b b M ,.5.q o # # # # # # # # # # # # # # # # # # # # o 6.",
"6.# # # # # # # # # # # # # # # # + 3 N b b b b b b k } 5.G z b b b b b j Y 5.&.@ # # # # $ # # # # # # # # # # # # # # # # + 6.",
"6.@ # # # # # # # # # # # # # # # + 3 B b b b b b b j ..o.j b b b b b b b ;.5.w + # # # # # # # # # # # # # # # # # # # # # o 6.",
"6.@ # # # # # # # # $ # # # # # # + 3 N b b b b b b k { K k b b b b b k U 5.&.@ # # # # # # # # # # # # # # # # # # # # # $ o 6.",
"6.@ # # # # # # # # # # # # # # # + 4 N b b b b b b b K b b b b b b b M ;.5.w o # # # # # # # # # & # # # # # # $ # # # # # o 6.",
"6.# # # # # $ # # # # # $ # # # # + 3 N b b b b b b b b b b b b b b z L 5.*.@ # # # # # # # # # # # # # # # # # # # # # # # o 6.",
"6.@ # # # # # # # # # # # # # # # + 3 B b b b b b b b b b b b b b b z A 3.>.& # # # # # # # # # # # # # # # # # # # # # # # o 6.",
"6.# # # # # # # # # # # # # # # # + 3 N b b b b b b b b b b b b b b b j ..5.R   # # # # # # # # # # # # # # # # # # # # # # o 6.",
"6.@ # # # # # # # # # # # # # # # + 3 N b b b b b b b b b b b b b b b z K 5.%.o # # # # # # # # # # # # # # # # # # # # # $ o 6.",
"6.@ # # # # # # # # # # # # # # @ + 4 N b b b b b b b b b b b b b b b z M ;.5.8 o # # # # # $ # # # # # & # # # # # # # # # + 6.",
"6.@ # # # # # # # # # # # # # # # + 3 N b b b b b b b b b b b b b b b b j ) 5.! X # # # # # # # # # # # # # # # # # # # # # o 6.",
"6.@ & # # # # # # # # # # # # # # + 3 N b b b b b b b b b b b b b b b b z A 5.>.* # # # # # # # # # # # # # # # # # # # # # o 6.",
"6.@ # # # # # # # # # # # # # # # + 3 N b b b b b b b b b b b b b b b b b k X.5.e   # # # # # # # # # # # # # # # # # # # $ o 6.",
"6.@ # # # # # # # # # # # # # # $ + 3 N b b b b b b b b b b z b b b b b b k L 5.@.o # # # # # # # # # # # # # # # # # # # # + 6.",
"6.@ # # # # # # & # # # # # # # # + 3 N b b b b b b b b b C A z b b b b b b M ,.5.7 o # # # # # # # # # # # # # # # # # # # o 6.",
"6.# # # # # # # # # # # # # # # @ + 3 N b b b b b b b b j ) ..j b b b b b b j ` 5.Q X # # # # # # # # # # # # # # # # # # # o 6.",
"6.@ # # # # # # # # # # # # # & $ + 3 N b b b b b b b b M 1.3.Z z b b b b b z F 5.>.& @ # # # # # # # # # # # # # # # # # $ o 6.",
"6.@ # # # # # # # # # # # # # # # + 3 N b b b b b b b j ( 5.$.p m b b b b b b z o.5.w   $ # # # # # # # # # # # # # # # # # + 6.",
"6.# # # # # # # # # # # # # # # # + 3 N b b b b b b z Z 1.5.0 = M M b b b b b j P 5.+.o # # # # # # # # # # # # $ # # # # # o 6.",
"6.# # # # # # # # # # # # # # # # + 3 N b b b b b b j _ 5.%.o @ x M b b b b b b b <.5.7 o @ # $ # # # # # # # # # # # # # $ o 6.",
"6.@ # # # # # # # # # # # # # # # + 3 N b b b b b b j } 5.+.o + 3 B b b b b b b j ` 5.Q X # # # & # # # # # # # # # # # # # o 6.",
"6.@ # # # # # # # # # # # # # # # + 4 N b b b b b b j { 5.+.o + : b M b b b b b z G 5.:.& @ # # # # # # # # # # # # # # # # o 6.",
"6.@ # # # # # # # # # # # # # # # + 3 N b b b b b b j { 5.+.o # @ a N b b b b b b z =.5.q o # # # # # # # # # # # # # # # # o 6.",
"6.# # # # # # # # # # $ # # # # # + 3 N b b b b b b j { 5.+.o # + 1 N b b b b b b j I 5.+.o @ # # # # # # # # # # # # # # $ o 6.",
"6.@ # # # $ # # # # # # # # # # # + 3 B b b b b b b j { 5.+.o # # $ c b b b b b b z C 1.4.6 o $ # # # # # # # # # # # # # # o 6.",
"6.# # # # # # # # # # # # # # # # + 3 N C b b b b b j { 5.+.o $ # + u N b b b b b b j [ 5.W   # # # # # # # # # # # # # # # + 6.",
"6.@ # # # # # # # # # # # # # # # + 3 N b b b b b b j { 5.+.o @ # @ , b M b b b b z z H 5.:.# @ # # # # # # # # # # # # # # o 6.",
"6.@ # # # # # # # # $ # # # # # # + 3 B b b b b b b j { 5.+.o # # # # f N b b b b b z z -.5.q   # # # # # # $ # # # # # # # o 6.",
"6.@ # # # # # # # # # # # # # # # + 3 N b b b b b b j { 5.+.o $ # # + 2 N b b b b b b j U 5./ o # # # # # # # # # # # # # $ o 6.",
"6.# # # # # # # # # # # $ # # # # + 3 N b b b b b b j { 5.+.o @ # # # % v M b b b b b z C 1.4.6 # # # # # # # # # # # # # # + 6.",
"6.@ # # # # # $ # # # # # # # # # + 3 N b b b b b b j { 5.+.o # # # # @ p N b b b b b b j { 5.E X # # # # # # # # # # # # # o 6.",
"6.# # # # # # # # # # # # # # # # + 3 N b b b b b b j { 5.+.o # # # # + - N b b b b b b z H 5.*.@ # # # # # # # # # # # # $ o 6.",
"6.@ # # # # # # # # # # # # # # # + 3 N b b b b b b j { 5.+.o @ # # # # $ x N b b b b b b b -.5.9 o # $ # # # # # # # # # # o 6.",
"6.@ # # # # # # # # # # # # # # # + 3 N b b b b b b j { 5.+.o # # # # # + 4 B b b b b b b j Y 5.^ o # # # # # # # # # # # # + 6.",
"6.@ # # # # # # # # # # # # # # # + 3 N b b b b b b j { 5.+.o # # # # # # > b M b M b b b z C 3.2.6 o # # # # # # # # # # # o 6.",
"6.# # # $ # # # # # & # # # # # # + 4 B M M M M M M j } 5.@.o # # # # # # @ s N M M M M M M k  .5.w o @ # # # # # # # # # $ o 6.",
"6.+ # # # # # # # # # # # # # # # + 3 b v v v v v v h ' >.q o # # # # # # + 1 b v v v v v v l K @.& # # # # # # $ # # # # # o 6.",
"6.@ # # # # # # # # # # # # # # # # $ * * % * * * * * 5 5 o @ # # # # # # # $ % * * * % * * * * & + # # # # # # # # # # # # o 6.",
"6.@ # # # $ # # # # $ # # # # # # $ # @ @ # # # @ @ @ # # $ # # # # # # # # # # @ @ # # # # # @ @ $ # # $ # # # # # # $ # # o 6.",
"6.6.@ o o o o o o o o o o @ + o o o o o o o o o o o o o o o o o o o o + o o o o o + o o o o o o o o o o o o o + o o o o o o   6.",
"6.6.6.6.6.6.6.6.6.6.6.6.6.6.6.6.6.6.6.6.6.6.6.6.6.6.6.6.6.6.6.6.6.6.6.6.6.6.6.6.6.6.6.6.6.6.6.6.6.6.6.6.6.6.6.6.6.6.6.6.6.6.6.6."
};
