/* XPM */
static char *_773bf3b868f414bf322d569a0c1103c[] = {
/* columns rows colors chars-per-pixel */
"16 16 98 2 ",
"   c #201D27",
".  c #211E28",
"X  c #29292A",
"o  c #2B2A2B",
"O  c #29282C",
"+  c #2D2D2D",
"@  c #303428",
"#  c #2E2C34",
"$  c #312F36",
"%  c gray19",
"&  c gray20",
"*  c #343434",
"=  c #333138",
"-  c #414D25",
";  c #4F602A",
":  c #556D21",
">  c #51642A",
",  c #56692D",
"<  c #596F28",
"1  c #607A27",
"2  c #434049",
"3  c #4B4B4B",
"4  c #4C4C4C",
"5  c gray31",
"6  c #50524D",
"7  c #53554E",
"8  c #555A4D",
"9  c #565A4C",
"0  c #515250",
"q  c gray32",
"w  c #5A5A59",
"e  c #5C5C5B",
"r  c #626D4A",
"t  c #646F4E",
"y  c #677054",
"u  c #5B5860",
"i  c #5E5D61",
"p  c #626163",
"a  c gray40",
"s  c #6C6A71",
"d  c #6F6E74",
"f  c #7A7A7B",
"g  c #7C7C7B",
"h  c #62811E",
"j  c #7AA618",
"k  c #84BB0D",
"l  c #80AE1C",
"z  c #84B518",
"x  c #8CBF1D",
"c  c #80AA25",
"v  c #88B722",
"b  c #8AC014",
"n  c #8BC017",
"m  c #8FC717",
"M  c #8FC41E",
"N  c #90C51A",
"B  c #91C71D",
"V  c #93CA1B",
"C  c #8EC021",
"Z  c #8FC022",
"A  c #94C821",
"S  c #95C826",
"D  c #98CB27",
"F  c #99CD28",
"G  c #9ACE2A",
"H  c #A1D03B",
"J  c #A4D23E",
"K  c #9EC941",
"L  c #A1CC42",
"P  c #A0C54E",
"I  c #A6CF4D",
"U  c #A4D045",
"Y  c #A1C455",
"T  c #A9D151",
"R  c #ADD656",
"E  c #AFD856",
"W  c #ABD158",
"Q  c #B0D956",
"!  c #B0D858",
"~  c #B1D269",
"^  c #B8DB6E",
"/  c #B9D776",
"(  c #848483",
")  c #86838C",
"_  c #86848C",
"`  c #88868C",
"'  c #8B8A8D",
"]  c #8D8D8E",
"[  c #92958B",
"{  c #95998C",
"}  c #9A9F90",
"|  c #A5AD94",
" . c #ADB993",
".. c #AFBA96",
"X. c #B1BB9A",
"o. c #B2BD9A",
"O. c #B2C883",
"+. c #BACF8C",
/* pixels */
"a 4 4 4 8 r y e 4 7 r t w 4 4 a ",
"3 + % # > n T (   1 b ~ i X + 3 ",
"5 % % $ , N Q ' @ v G X.= * % 4 ",
"5 % & # , N E _ : m ^ s o * % 4 ",
"5 % & # , N R [ j G X.= & & % 4 ",
"5 % & # , N W O.k ^ d X * & % 5 ",
"5 % & # , B K L S ..= & & & % 4 ",
"5 % & # , A C x H } o & & & % 0 ",
"4 % * # , A C x x +.2 % % & % 5 ",
"0 % * # , A Z I x E f X * * % 4 ",
"5 % * # , B U | j F  .$ & & % 5 ",
"5 % % # , B ! ) h V / e + & % 5 ",
"5 % * # , N Q ` - M J { o & % 5 ",
"5 % & # , V Q ] X c V +.2 % % 3 ",
"3 + % # ; z P g   < z Y p o + 3 ",
"a 3 4 4 6 8 8 q 3 5 8 8 6 4 3 a "
};
